<svg width="158" height="61" viewBox="0 0 158 61" fill="none" xmlns="http://www.w3.org/2000/svg">
<path d="M10.9174 40.343C9.67787 39.6265 8.71543 38.6072 8.02933 37.286C7.34288 35.9648 7 34.4239 7 32.662C7 30.9002 7.34273 29.3592 8.02933 28.0381C8.71528 26.7169 9.67787 25.6982 10.9174 24.981C12.1564 24.2644 13.575 23.9057 15.1727 23.9057C16.299 23.9057 17.3436 24.126 18.3066 24.5663C19.2692 25.007 20.0165 25.5956 20.5494 26.333V19.4199H24.6358V41.1728H20.5494V38.9911C20.0165 39.7284 19.2743 40.3176 18.322 40.7577C17.3695 41.1982 16.3297 41.4185 15.2035 41.4185C13.5851 41.4185 12.1566 41.0605 10.9174 40.343ZM19.2435 36.4564C20.1139 35.4838 20.5493 34.2187 20.5493 32.6619C20.5493 31.1051 20.1139 29.8352 19.2435 28.8522C18.3727 27.8691 17.2411 27.3774 15.8485 27.3774C14.4558 27.3774 13.3186 27.8691 12.4381 28.8522C11.5573 29.8353 11.1169 31.1056 11.1169 32.6619C11.1169 34.2182 11.5571 35.4838 12.4381 36.4564C13.3186 37.4295 14.4553 37.9161 15.8485 37.9161C17.2416 37.9161 18.3727 37.4295 19.2435 36.4564Z" fill="white"/>
<path d="M30.9148 40.3127C29.6138 39.5753 28.6105 38.5416 27.9039 37.2097C27.1971 35.8784 26.8438 34.3629 26.8438 32.6626C26.8438 30.9832 27.2124 29.478 27.9499 28.1462C28.6872 26.8149 29.7012 25.7757 30.9916 25.0277C32.282 24.2803 33.7362 23.9062 35.3543 23.9062C36.9928 23.9062 38.4368 24.2596 39.6865 24.9664C40.9356 25.6731 41.8988 26.6407 42.5745 27.8698C43.2507 29.0986 43.5882 30.4917 43.5882 32.048C43.5882 32.5195 43.5574 33.0006 43.4963 33.4921H30.8687C31.0118 34.926 31.4986 36.0375 32.3282 36.8257C33.1577 37.6144 34.2073 38.0086 35.4774 38.0086C36.5014 38.0086 37.341 37.7934 37.9967 37.3632C38.6521 36.9332 39.0722 36.3494 39.2564 35.6121H43.4351C43.107 37.3126 42.2368 38.7053 40.8233 39.7907C39.41 40.8766 37.6281 41.4191 35.4774 41.4191C33.7362 41.4191 32.2154 41.0501 30.9148 40.3127ZM39.2563 30.5119C39.2357 29.4673 38.8669 28.6329 38.1502 28.0079C37.433 27.3833 36.5013 27.0709 35.3543 27.0709C34.2276 27.0709 33.2958 27.3628 32.5584 27.9466C31.821 28.5303 31.3189 29.3859 31.0529 30.5121L39.2563 30.5119Z" fill="white"/>
<path d="M48.8941 40.343C47.6545 39.6265 46.6919 38.6072 46.0058 37.286C45.3196 35.9648 44.9766 34.4239 44.9766 32.662C44.9766 30.9002 45.3191 29.3592 46.0058 28.0381C46.6919 26.7169 47.6545 25.6982 48.8941 24.981C50.1331 24.2644 51.5517 23.9057 53.1492 23.9057C54.2754 23.9057 55.32 24.126 56.2831 24.5663C57.2457 25.007 57.993 25.5956 58.526 26.333V19.4199H62.6126V41.1728H58.526V38.9911C57.993 39.7284 57.2507 40.3176 56.2985 40.7577C55.3459 41.1982 54.3062 41.4185 53.18 41.4185C51.5616 41.4185 50.1331 41.0605 48.8941 40.343ZM57.2204 36.4564C58.0905 35.4838 58.526 34.2187 58.526 32.6619C58.526 31.1051 58.0905 29.8352 57.2204 28.8522C56.3492 27.8691 55.2176 27.3774 53.8249 27.3774C52.4322 27.3774 51.2951 27.8691 50.4145 28.8522C49.534 29.8353 49.0935 31.1056 49.0935 32.6619C49.0935 34.2182 49.5335 35.4838 50.4145 36.4564C51.2951 37.4295 52.4317 37.9161 53.8249 37.9161C55.2181 37.9161 56.3492 37.4295 57.2204 36.4564Z" fill="white"/>
<path d="M66.6212 40.0828C65.5661 39.1918 65.0391 37.999 65.0391 36.5034C65.0391 34.9057 65.6228 33.6412 66.7902 32.7088C67.9577 31.7771 69.7805 31.1779 72.259 30.9115L76.0687 30.4815V30.1434C76.0687 29.1808 75.7509 28.4282 75.1165 27.8853C74.4816 27.3428 73.6418 27.0711 72.5971 27.0711C71.5933 27.0711 70.7634 27.3375 70.1081 27.8699C69.4523 28.4029 69.0739 29.1402 68.9715 30.0819H65.0391C65.1818 28.8942 65.5964 27.8343 66.2831 26.902C66.9692 25.9702 67.8602 25.2381 68.9561 24.7051C70.0514 24.1727 71.2651 23.9062 72.5971 23.9062C74.85 23.9062 76.6678 24.4952 78.0505 25.673C79.4328 26.851 80.1244 28.495 80.1244 30.6042V41.1732H76.0687V38.9303C75.6794 39.6884 75.0136 40.2926 74.0719 40.7431C73.1297 41.1936 72.085 41.4187 70.938 41.4187C69.1147 41.4187 67.6758 40.9738 66.6212 40.0828ZM69.8162 37.7477C70.2772 38.1064 70.8867 38.2853 71.6445 38.2853C72.9755 38.2853 74.046 37.8553 74.855 36.9949C75.6639 36.1348 76.0687 34.9672 76.0687 33.4923L72.3202 33.8919C71.2552 34.0148 70.4562 34.2864 69.9236 34.7059C69.3911 35.126 69.1251 35.6738 69.1251 36.3497C69.1251 36.9233 69.3553 37.3895 69.8162 37.7477Z" fill="white"/>
<path d="M82.9184 40.6965C82.4674 40.2565 82.2422 39.7085 82.2422 39.0527C82.2422 38.4183 82.4674 37.8808 82.9184 37.4399C83.3684 36.9997 83.9213 36.7793 84.5771 36.7793C85.2329 36.7793 85.7853 36.9996 86.2363 37.4399C86.6867 37.8808 86.9125 38.4183 86.9125 39.0527C86.9125 39.7085 86.6867 40.2565 86.2363 40.6965C85.7853 41.1375 85.2324 41.3573 84.5771 41.3573C83.9218 41.3573 83.3684 41.1375 82.9184 40.6965Z" fill="white"/>
<path d="M91.0481 39.912C89.9931 38.9286 89.466 37.5567 89.466 35.7949V27.4687H87.0078V24.1504H89.466V20.6172H93.5521V24.1504H97.2086V27.4687H93.5521V35.4262C93.5521 36.2049 93.7465 36.8087 94.1358 37.2389C94.5246 37.6691 95.0472 37.8839 95.703 37.8839C96.2146 37.8839 96.7884 37.7719 97.4234 37.5462V40.987C96.6656 41.253 95.9074 41.3863 95.1501 41.3863C93.47 41.3863 92.1032 40.895 91.0481 39.912Z" fill="white"/>
<path d="M102.165 40.3127C100.864 39.5753 99.8602 38.5416 99.1537 37.2097C98.4472 35.8784 98.0938 34.3629 98.0938 32.6626C98.0938 30.9832 98.4621 29.478 99.1999 28.1462C99.9368 26.8149 100.951 25.7757 102.241 25.0277C103.532 24.2803 104.986 23.9062 106.604 23.9062C108.243 23.9062 109.687 24.2596 110.936 24.9664C112.186 25.6731 113.149 26.6407 113.824 27.8698C114.501 29.0986 114.838 30.4917 114.838 32.048C114.838 32.5195 114.807 33.0006 114.746 33.4921H102.119C102.262 34.926 102.749 36.0375 103.578 36.8257C104.408 37.6144 105.457 38.0086 106.727 38.0086C107.752 38.0086 108.591 37.7934 109.247 37.3632C109.902 36.9332 110.322 36.3494 110.507 35.6121H114.685C114.357 37.3126 113.486 38.7053 112.073 39.7907C110.66 40.8766 108.878 41.4191 106.727 41.4191C104.986 41.4191 103.465 41.0501 102.165 40.3127ZM110.506 30.5119C110.486 29.4673 110.117 28.6329 109.4 28.0079C108.683 27.3833 107.751 27.0709 106.604 27.0709C105.477 27.0709 104.546 27.3628 103.809 27.9466C103.071 28.5303 102.569 29.3859 102.303 30.5121L110.506 30.5119Z" fill="white"/>
<path d="M120.359 40.2973C119.048 39.5499 118.023 38.5108 117.286 37.1789C116.549 35.8478 116.18 34.3424 116.18 32.6626C116.18 30.9828 116.549 29.478 117.286 28.1462C118.023 26.8149 119.048 25.7757 120.359 25.0277C121.669 24.2803 123.155 23.9062 124.814 23.9062C127.005 23.9062 128.823 24.48 130.267 25.6271C131.711 26.7742 132.545 28.3413 132.771 30.3278H128.654C128.49 29.4473 128.055 28.7354 127.349 28.1924C126.641 27.65 125.797 27.3782 124.814 27.3782C123.954 27.3782 123.18 27.5986 122.494 28.0389C121.808 28.4795 121.27 29.0987 120.881 29.8976C120.492 30.6964 120.297 31.6182 120.297 32.6628C120.297 33.6871 120.497 34.5986 120.896 35.3974C121.296 36.1963 121.838 36.816 122.525 37.2562C123.211 37.6968 123.973 37.9167 124.814 37.9167C125.858 37.9167 126.744 37.6453 127.471 37.1024C128.198 36.56 128.633 35.8581 128.777 34.9979H132.894C132.771 36.2269 132.361 37.3283 131.665 38.3006C130.968 39.2741 130.026 40.0368 128.838 40.5897C127.65 41.1431 126.308 41.4195 124.814 41.4195C123.155 41.4195 121.669 41.0452 120.359 40.2973Z" fill="white"/>
<path d="M134.898 19.4199H138.985V26.4559C139.476 25.7391 140.224 25.1347 141.227 24.6431C142.231 24.1514 143.306 23.9057 144.454 23.9057C145.683 23.9057 146.778 24.1621 147.741 24.6739C148.704 25.1862 149.462 25.9029 150.015 26.8246C150.568 27.7464 150.844 28.8015 150.844 29.9891V41.1728H146.758V31.0337C146.758 29.969 146.456 29.1135 145.851 28.4683C145.247 27.823 144.433 27.5003 143.409 27.5003C142.057 27.5003 140.982 28.0226 140.183 29.0672C139.384 30.1119 138.985 31.6073 138.985 33.553V41.1728H134.898V19.4199Z" fill="white"/>
</svg>
