<svg width="48" height="49" viewBox="0 0 48 49" fill="none" xmlns="http://www.w3.org/2000/svg">
<g clip-path="url(#clip0_117_3932)">
<mask id="mask0_117_3932" style="mask-type:luminance" maskUnits="userSpaceOnUse" x="0" y="1" width="48" height="48">
<path d="M48.0005 1.18335H0.980469V48.2034H48.0005V1.18335Z" fill="white"/>
</mask>
<g mask="url(#mask0_117_3932)">
<path d="M24.4905 48.2034C34.7925 48.2034 40.5194 48.2034 44.2599 44.4629C48.0005 40.7223 48.0005 34.9953 48.0005 24.6934C48.0005 14.3914 48.0005 8.66441 44.2599 4.92388C40.5194 1.18335 34.7925 1.18335 24.4905 1.18335C14.1885 1.18335 8.46152 1.18335 4.72099 4.92388C0.980468 8.66441 0.980469 14.3914 0.980469 24.6934C0.980469 34.9953 0.980468 40.7223 4.72099 44.4629C8.46152 48.2034 14.1885 48.2034 24.4905 48.2034Z" fill="url(#paint0_linear_117_3932)"/>
<mask id="mask1_117_3932" style="mask-type:luminance" maskUnits="userSpaceOnUse" x="7" y="7" width="35" height="35">
<path d="M41.5542 7.62952H7.42676V41.7569H41.5542V7.62952Z" fill="white"/>
</mask>
<g mask="url(#mask1_117_3932)">
<g filter="url(#filter0_i_117_3932)">
<mask id="mask2_117_3932" style="mask-type:luminance" maskUnits="userSpaceOnUse" x="7" y="7" width="35" height="35">
<path d="M41.5542 7.62952H7.42676V41.7569H41.5542V7.62952Z" fill="white"/>
</mask>
<g mask="url(#mask2_117_3932)">
<path d="M24.4905 7.62952C15.0685 7.62952 7.42676 15.2698 7.42676 24.6933C7.42676 32.2325 12.3155 38.6286 19.0969 40.8853C19.9487 41.0431 20.2245 40.5141 20.2245 40.0648V36.8881C15.478 37.9205 14.4898 34.8746 14.4898 34.8746C13.7133 32.9023 12.5943 32.3776 12.5943 32.3776C11.0457 31.3182 12.7122 31.341 12.7122 31.341C14.4257 31.4604 15.3273 33.0999 15.3273 33.0999C16.8488 35.7079 19.3187 34.9542 20.2928 34.5177C20.4449 33.4157 20.8872 32.662 21.3763 32.2368C17.5868 31.8031 13.6024 30.3399 13.6024 23.8031C13.6024 21.9389 14.2693 20.4174 15.3599 19.2229C15.1836 18.792 14.5992 17.0558 15.5263 14.7067C15.5263 14.7067 16.9597 14.2488 20.2203 16.4557C21.5812 16.0775 23.04 15.8884 24.4905 15.8812C25.9409 15.8884 27.4012 16.0775 28.7649 16.4557C32.0226 14.2488 33.4532 14.7067 33.4532 14.7067C34.3818 17.0572 33.7973 18.7934 33.621 19.2229C34.7159 20.4174 35.3771 21.9402 35.3771 23.8031C35.3771 30.3569 31.3856 31.8002 27.5861 32.2226C28.1975 32.7516 28.7564 33.7896 28.7564 35.3822V40.0648C28.7564 40.5184 29.0294 41.0516 29.8954 40.8838C36.6711 38.6243 41.5542 32.2297 41.5542 24.6933C41.5542 15.2698 33.9139 7.62952 24.4905 7.62952Z" fill="url(#paint1_linear_117_3932)"/>
</g>
</g>
</g>
<g style="mix-blend-mode:overlay">
<path d="M24.4905 48.2034C34.7925 48.2034 40.5194 48.2034 44.2599 44.4629C48.0005 40.7223 48.0005 34.9953 48.0005 24.6934C48.0005 14.3914 48.0005 8.66441 44.2599 4.92388C40.5194 1.18335 34.7925 1.18335 24.4905 1.18335C14.1885 1.18335 8.46152 1.18335 4.72099 4.92388C0.980468 8.66441 0.980469 14.3914 0.980469 24.6934C0.980469 34.9953 0.980468 40.7223 4.72099 44.4629C8.46152 48.2034 14.1885 48.2034 24.4905 48.2034Z" fill="url(#paint2_linear_117_3932)"/>
</g>
<g style="mix-blend-mode:overlay">
<path d="M24.4905 48.2034C34.7925 48.2034 40.5194 48.2034 44.2599 44.4629C48.0005 40.7223 48.0005 34.9953 48.0005 24.6934C48.0005 14.3914 48.0005 8.66441 44.2599 4.92388C40.5194 1.18335 34.7925 1.18335 24.4905 1.18335C14.1885 1.18335 8.46152 1.18335 4.72099 4.92388C0.980468 8.66441 0.980469 14.3914 0.980469 24.6934C0.980469 34.9953 0.980468 40.7223 4.72099 44.4629C8.46152 48.2034 14.1885 48.2034 24.4905 48.2034Z" fill="url(#paint3_linear_117_3932)"/>
</g>
<g style="mix-blend-mode:soft-light" filter="url(#filter1_f_117_3932)">
<path d="M44.0586 44.2618C42.247 46.0734 39.9464 46.992 36.7942 47.4544C33.6324 47.9183 29.6493 47.919 24.4903 47.919C19.3312 47.919 15.348 47.9183 12.1863 47.4544C9.03406 46.992 6.73358 46.0734 4.92188 44.2618C3.11018 42.45 2.19165 40.1496 1.7292 36.9974C1.26534 33.8356 1.26465 29.8525 1.26465 24.6934C1.26465 19.5343 1.26534 15.5512 1.7292 12.3894C2.19165 9.23718 3.11018 6.93669 4.92188 5.12499C6.73358 3.3133 9.03406 2.39477 12.1863 1.93232C15.348 1.46846 19.3312 1.46777 24.4903 1.46777C29.6493 1.46777 33.6324 1.46846 36.7942 1.93232C39.9464 2.39477 42.247 3.3133 44.0586 5.12499C45.8704 6.93669 46.7888 9.23718 47.2513 12.3894C47.7152 15.5512 47.7159 19.5343 47.7159 24.6934C47.7159 29.8525 47.7152 33.8356 47.2513 36.9974C46.7888 40.1496 45.8704 42.45 44.0586 44.2618Z" stroke="url(#paint4_linear_117_3932)" stroke-width="0.56879"/>
</g>
<g style="mix-blend-mode:soft-light" filter="url(#filter2_f_117_3932)">
<path d="M43.9915 44.1947C42.1994 45.9869 39.921 46.8998 36.7804 47.3605C33.6271 47.8232 29.6519 47.8242 24.4902 47.8242C19.3284 47.8242 15.3533 47.8232 12.2 47.3605C9.05936 46.8998 6.78101 45.9869 4.98884 44.1947C3.19666 42.4025 2.28367 40.1241 1.82292 36.9835C1.3603 33.8301 1.35938 29.8551 1.35938 24.6934C1.35938 19.5315 1.3603 15.5565 1.82292 12.4031C2.28367 9.26249 3.19666 6.98413 4.98884 5.19195C6.78101 3.39979 9.05937 2.4868 12.2 2.02605C15.3533 1.56342 19.3284 1.5625 24.4902 1.5625C29.6519 1.5625 33.6271 1.56342 36.7804 2.02605C39.921 2.4868 42.1994 3.39979 43.9915 5.19195C45.7837 6.98413 46.6967 9.26249 47.1575 12.4031C47.62 15.5565 47.621 19.5315 47.621 24.6934C47.621 29.8551 47.62 33.8301 47.1575 36.9835C46.6967 40.1241 45.7837 42.4025 43.9915 44.1947Z" stroke="url(#paint5_linear_117_3932)" stroke-width="0.758388"/>
</g>
</g>
</g>
<defs>
<filter id="filter0_i_117_3932" x="7.42676" y="7.62952" width="34.127" height="33.6651" filterUnits="userSpaceOnUse" color-interpolation-filters="sRGB">
<feFlood flood-opacity="0" result="BackgroundImageFix"/>
<feBlend mode="normal" in="SourceGraphic" in2="BackgroundImageFix" result="shape"/>
<feColorMatrix in="SourceAlpha" type="matrix" values="0 0 0 0 0 0 0 0 0 0 0 0 0 0 0 0 0 0 127 0" result="hardAlpha"/>
<feOffset dy="0.379194"/>
<feGaussianBlur stdDeviation="0.379194"/>
<feComposite in2="hardAlpha" operator="arithmetic" k2="-1" k3="1"/>
<feColorMatrix type="matrix" values="0 0 0 0 0 0 0 0 0 0 0 0 0 0 0 0 0 0 0.16 0"/>
<feBlend mode="normal" in2="shape" result="effect1_innerShadow_117_3932"/>
</filter>
<filter id="filter1_f_117_3932" x="0.601276" y="0.804157" width="47.7779" height="47.7784" filterUnits="userSpaceOnUse" color-interpolation-filters="sRGB">
<feFlood flood-opacity="0" result="BackgroundImageFix"/>
<feBlend mode="normal" in="SourceGraphic" in2="BackgroundImageFix" result="shape"/>
<feGaussianBlur stdDeviation="0.189596" result="effect1_foregroundBlur_117_3932"/>
</filter>
<filter id="filter2_f_117_3932" x="-0.157112" y="0.0457692" width="49.2947" height="49.2952" filterUnits="userSpaceOnUse" color-interpolation-filters="sRGB">
<feFlood flood-opacity="0" result="BackgroundImageFix"/>
<feBlend mode="normal" in="SourceGraphic" in2="BackgroundImageFix" result="shape"/>
<feGaussianBlur stdDeviation="0.56879" result="effect1_foregroundBlur_117_3932"/>
</filter>
<linearGradient id="paint0_linear_117_3932" x1="24.4905" y1="1.18335" x2="24.4905" y2="48.2034" gradientUnits="userSpaceOnUse">
<stop stop-color="#312C3C"/>
<stop offset="1" stop-color="#340F1E"/>
</linearGradient>
<linearGradient id="paint1_linear_117_3932" x1="24.4905" y1="7.62952" x2="24.4905" y2="40.9154" gradientUnits="userSpaceOnUse">
<stop stop-color="#979394"/>
<stop offset="1" stop-color="#01555B"/>
</linearGradient>
<linearGradient id="paint2_linear_117_3932" x1="0.429" y1="1.18335" x2="13.3011" y2="56.3062" gradientUnits="userSpaceOnUse">
<stop stop-opacity="0"/>
<stop offset="0.605667" stop-opacity="0.0781197"/>
<stop offset="1" stop-opacity="0.26"/>
</linearGradient>
<linearGradient id="paint3_linear_117_3932" x1="0.429" y1="1.18335" x2="13.3011" y2="56.3062" gradientUnits="userSpaceOnUse">
<stop offset="0.140625" stop-color="white" stop-opacity="0.26"/>
<stop offset="0.640625" stop-color="white" stop-opacity="0.0781197"/>
<stop offset="1" stop-color="white" stop-opacity="0"/>
</linearGradient>
<linearGradient id="paint4_linear_117_3932" x1="24.4903" y1="48.2034" x2="24.4903" y2="40.8565" gradientUnits="userSpaceOnUse">
<stop/>
<stop offset="1" stop-opacity="0"/>
</linearGradient>
<linearGradient id="paint5_linear_117_3932" x1="24.4902" y1="1.18331" x2="24.4902" y2="24.6934" gradientUnits="userSpaceOnUse">
<stop stop-color="white"/>
<stop offset="1" stop-color="white" stop-opacity="0"/>
</linearGradient>
<clipPath id="clip0_117_3932">
<rect width="47.02" height="47.9996" fill="white" transform="translate(0.980469 0.420166)"/>
</clipPath>
</defs>
</svg>
