<svg width="116" height="25" viewBox="0 0 116 25" fill="none" xmlns="http://www.w3.org/2000/svg">
<g clip-path="url(#clip0_117_3901)">
<path d="M58.808 23.8335C58.3316 22.6942 57.8344 21.5342 57.3373 20.3742L55.0794 15.092C53.443 11.2392 51.8066 7.38633 50.2323 3.69919L50.1909 3.61633H46.1102L46.0687 3.69919C43.293 10.2035 40.2687 17.3085 37.493 23.8335L37.4102 24.0406H41.118L41.1594 23.9578C42.2366 21.4513 43.3759 18.7378 44.5359 16.0656L44.6602 15.7756C45.7166 13.2692 46.7937 10.7835 47.7673 8.46348L48.1609 7.53133L48.5544 8.46348C50.6466 13.3728 53.0494 19.007 55.1623 23.9578L55.2037 24.0406H58.9116L58.8287 23.8335H58.808Z" fill="#F8F3F4"/>
<path d="M115.544 23.8335C112.769 17.2878 109.744 10.2035 106.969 3.69919L106.927 3.61633H102.846L102.805 3.69919C100.299 9.56133 97.6058 15.8999 95.0579 21.8863L94.1465 24.0406H97.8543L104.876 7.53133L105.27 8.46348C107.362 13.3728 109.765 19.007 111.878 23.9578L111.919 24.0406H115.627L115.544 23.8335Z" fill="#F8F3F4"/>
<path d="M32.1897 14.8021L31.7547 13.8078L34.2197 8.02852C34.8412 6.53709 35.4833 5.06638 36.0219 3.78209L36.1047 3.57495H32.3969L28.0469 13.7871L32.3969 23.9992H36.1047L32.169 14.7814L32.1897 14.8021Z" fill="#F8F3F4"/>
<path d="M76.6014 18.0749C76.6014 18.6549 76.5186 19.2557 76.3322 19.8357C76.2286 20.2085 76.0629 20.5399 75.8972 20.8714C75.7729 21.1407 75.5864 21.3892 75.4 21.6585C74.3229 23.0671 72.7279 23.9371 71.0086 24.0199C70.9879 24.0199 70.9464 24.0199 70.9257 24.0199H70.3457C69.3722 24.0199 70.2007 24.0199 67.9843 24.0199C66.1822 24.0199 64.1936 24.0199 62.4122 24.0199H60.2786L58.8286 20.6228H70.6357C72.0443 20.6228 73.2043 19.4835 73.2043 18.0749C73.2043 16.6664 72.0443 15.5271 70.6357 15.5271H63.4479C63.3236 15.5271 63.22 15.5271 63.1164 15.5271C61.5215 15.4442 60.0507 14.7399 58.9943 13.5385C57.5857 12.0057 57.0886 9.56137 57.8136 7.59351C58.6214 5.31494 60.7136 3.76137 63.1372 3.63708C63.1579 3.63708 63.1993 3.63708 63.22 3.63708H63.2614C63.9243 3.63708 66.12 3.63708 68.73 3.63708C70.3664 3.63708 69.3514 3.63708 71.0086 3.63708H73.0386L74.4886 7.03423H63.4479C62.0393 7.03423 60.8793 8.17351 60.8793 9.58208C60.8793 10.9907 61.9772 12.0885 63.365 12.1299H70.7393C70.7393 12.1299 70.8014 12.1299 70.8429 12.1299C70.8636 12.1299 70.905 12.1299 70.9464 12.1299H70.9879C71.1329 12.1299 71.2364 12.1299 71.3607 12.1507C71.6922 12.1921 72.0029 12.2542 72.2929 12.3371C72.645 12.4407 72.9972 12.5857 73.3286 12.7514C74.5093 13.3521 75.4622 14.3257 76.0422 15.5064C76.125 15.6928 76.2079 15.8792 76.2907 16.0657C76.5186 16.7078 76.6429 17.3707 76.6222 18.0542L76.6014 18.0749Z" fill="#F8F3F4"/>
<path d="M91.9301 21.8864L92.8623 24.0407H89.1544L89.113 23.9578C88.678 22.9014 88.0566 21.4514 87.4351 20.0221L87.1451 19.3592C86.5651 18.0128 86.0266 16.7078 85.633 15.7964L85.5294 15.5271H77.5337C76.9537 14.0978 75.8558 12.8757 74.5094 12.1299H87.083C88.8644 11.9021 89.5894 10.5971 89.5273 9.4578C89.4444 8.23566 88.4708 6.9928 86.7308 6.9928C86.5651 6.9928 86.3994 6.9928 86.213 7.03423H75.8973L74.4473 3.63708H87.4558C90.5008 3.88566 92.9658 6.53709 92.9244 9.58209C92.9244 11.8814 91.5366 14.0564 89.4237 15.0092L89.0508 15.1749L89.6101 16.5007C90.273 18.0749 91.143 20.1049 91.9094 21.9278L91.9301 21.8864Z" fill="#F8F3F4"/>
<path d="M27.2602 20.7057L25.3338 24.0199H2.29948L0.373047 20.7057L2.29948 17.3914L4.2259 20.7057H23.428C21.7088 17.7435 19.368 13.7042 17.6695 10.7628H13.8373L15.7638 7.44852L13.8373 4.13423L11.9109 7.44852L8.07876 14.0771H15.7638L17.6902 17.3914H6.13162L4.20519 14.0771L6.13162 10.7628C7.83019 7.80066 10.1916 3.76137 11.8902 0.819946H15.7223C17.4416 3.78209 19.7823 7.82138 21.4809 10.7628L23.4073 14.0771C24.3602 15.7342 26.2866 19.0485 27.2395 20.7057H27.2602Z" fill="#F8F3F4"/>
</g>
<defs>
<clipPath id="clip0_117_3901">
<rect width="115.254" height="23.2" fill="white" transform="translate(0.373047 0.819946)"/>
</clipPath>
</defs>
</svg>
