<svg width="38" height="39" viewBox="0 0 38 39" fill="none" xmlns="http://www.w3.org/2000/svg">
<g clip-path="url(#clip0_117_2703)">
<mask id="mask0_117_2703" style="mask-type:luminance" maskUnits="userSpaceOnUse" x="0" y="0" width="38" height="39">
<path d="M38 0.399902H0V38.3999H38V0.399902Z" fill="white"/>
</mask>
<g mask="url(#mask0_117_2703)">
<mask id="mask1_117_2703" style="mask-type:luminance" maskUnits="userSpaceOnUse" x="0" y="0" width="38" height="39">
<path d="M38 0.399902H0V38.3999H38V0.399902Z" fill="white"/>
</mask>
<g mask="url(#mask1_117_2703)">
<mask id="mask2_117_2703" style="mask-type:luminance" maskUnits="userSpaceOnUse" x="0" y="0" width="37" height="39">
<path d="M36.7546 0.399902H0.950195V38.3999H36.7546V0.399902Z" fill="white"/>
</mask>
<g mask="url(#mask2_117_2703)">
<path d="M27.8826 18.3575C28.1437 18.3233 28.4082 18.3233 28.6692 18.3575C28.8147 18.0332 28.835 17.4748 28.7084 16.8656C28.5195 15.9612 28.2636 15.4115 27.7343 15.4988C27.205 15.586 27.1876 16.2404 27.3752 17.1448C27.455 17.5809 27.6281 17.9945 27.8826 18.3575Z" fill="black"/>
<path d="M23.3425 19.0727C23.7205 19.2384 23.9518 19.3489 24.0433 19.2529C24.1014 19.1918 24.084 19.0785 23.9938 18.9302C23.7505 18.5795 23.4113 18.3064 23.0167 18.1436C22.5956 17.9703 22.137 17.9081 21.6851 17.9625C21.233 18.017 20.8023 18.1865 20.4343 18.4546C20.1814 18.6408 19.9414 18.8909 19.9748 19.0523C19.9866 19.1032 20.0244 19.1411 20.113 19.154C20.3224 19.1773 21.0509 18.8095 21.8898 18.7572C22.3925 18.7428 22.891 18.8511 23.3425 19.0727Z" fill="black"/>
<path d="M22.5841 19.506C22.2405 19.5436 21.9148 19.6795 21.6463 19.8972C21.5215 19.9872 21.4357 20.1213 21.4064 20.2724C21.4057 20.2882 21.4083 20.3041 21.4141 20.3189C21.4199 20.3338 21.4287 20.3471 21.4398 20.3585C21.451 20.3699 21.4644 20.3787 21.4792 20.3846C21.4938 20.3905 21.5097 20.3934 21.5256 20.393C21.649 20.3747 21.7696 20.3409 21.8847 20.2927C22.3906 20.1029 22.9369 20.0463 23.4711 20.1283C23.7183 20.156 23.8361 20.1719 23.8898 20.0877C23.903 20.0627 23.9087 20.0344 23.9062 20.0063C23.9036 19.978 23.8929 19.9513 23.8753 19.9291C23.7605 19.7386 23.2632 19.4261 22.5841 19.506Z" fill="black"/>
<path d="M26.3507 21.0996C26.6851 21.2639 27.0531 21.1998 27.1737 20.9542C27.2944 20.7084 27.1184 20.3725 26.7855 20.2155C26.4524 20.0585 26.0817 20.1151 25.9625 20.3609C25.8432 20.6067 26.0163 20.9353 26.3507 21.0996Z" fill="black"/>
<path d="M28.5009 19.2212C28.2289 19.2212 28.0036 19.512 27.9963 19.8871C27.989 20.2623 28.2057 20.566 28.4776 20.5705C28.7494 20.5749 28.9749 20.2797 28.9807 19.9045C28.9865 19.5293 28.7713 19.2255 28.5009 19.2212Z" fill="black"/>
<path d="M9.96448 25.904C9.88201 25.9267 9.79702 25.939 9.71144 25.9404C9.62084 25.9415 9.53137 25.9202 9.45088 25.8784C9.37047 25.8365 9.30164 25.7753 9.25051 25.7005C9.12693 25.5115 9.13418 25.2279 9.2709 24.9037C9.28981 24.8601 9.31019 24.8106 9.33489 24.7582C9.55296 24.2696 9.91646 23.4496 9.50788 22.6716C9.3754 22.3966 9.17685 22.1587 8.92993 21.9791C8.6831 21.7994 8.39559 21.6837 8.09313 21.6422C7.80686 21.6067 7.51627 21.6399 7.24529 21.7387C6.9743 21.8376 6.73066 21.9993 6.5344 22.2107C5.93387 22.8738 5.83937 23.7752 5.95277 24.0937C5.99494 24.2101 6.06182 24.2391 6.11127 24.2493C6.21304 24.2638 6.36427 24.1882 6.45878 23.9338C6.46605 23.9164 6.47478 23.8873 6.48641 23.8509C6.54467 23.6473 6.6282 23.4521 6.73505 23.2692C6.8109 23.1478 6.91054 23.0429 7.02798 22.9609C7.14543 22.879 7.27825 22.8216 7.41846 22.7923C7.56035 22.7613 7.70704 22.7589 7.84989 22.7853C7.99272 22.8119 8.12881 22.8667 8.25017 22.9465C8.45553 23.0811 8.60807 23.2827 8.68198 23.5169C8.75591 23.7511 8.74667 24.0036 8.65581 24.2318C8.51163 24.5949 8.44 24.9827 8.445 25.3732C8.5119 26.1817 9.0106 26.5074 9.4628 26.5365C9.91508 26.5656 10.2015 26.3082 10.2785 26.1293C10.2962 26.0989 10.304 26.0636 10.3009 26.0285C10.2977 25.9934 10.2839 25.9601 10.2611 25.933C10.187 25.8531 10.075 25.8793 9.96448 25.904Z" fill="black"/>
<path d="M35.3537 24.4584C35.3377 24.3989 35.2301 24.0048 35.0818 23.5308C34.9968 23.2554 34.8963 22.9849 34.7808 22.7209C35.3739 21.8311 35.3857 21.0356 35.3056 20.5849C35.2168 20.0042 34.9411 19.4682 34.5205 19.0582C34.0523 18.5652 33.0927 18.0621 31.7462 17.6826C31.592 17.6404 31.0831 17.5008 31.0381 17.4863C31.0381 17.4573 31.0017 15.82 30.9712 15.1177C30.9571 14.4126 30.852 13.7122 30.6586 13.0341C30.3678 11.977 29.8545 11.0507 29.2161 10.459C30.977 8.63407 32.0762 6.62459 32.0733 4.89864C32.066 1.58197 27.9948 0.578676 22.9753 2.65796L21.9111 3.10872C21.9111 3.10872 19.9887 1.21846 19.9597 1.19664C14.2365 -3.79509 -3.65836 16.0948 2.06331 20.9251L3.31379 21.9851C2.97552 22.892 2.85643 23.8661 2.96627 24.8278C3.10005 26.1568 3.7849 27.4305 4.89725 28.4163C5.95288 29.3513 7.34004 29.9416 8.68646 29.9416C10.9127 35.0716 15.999 38.2196 21.9634 38.3969C28.3611 38.586 33.7323 35.5848 35.9833 30.1917C36.1287 29.8123 36.754 28.1081 36.754 26.6017C36.754 25.0953 35.899 24.4584 35.3537 24.4584ZM9.18089 28.4963C8.98485 28.5289 8.78621 28.5425 8.58761 28.5371C6.65518 28.4862 4.56863 26.7457 4.3607 24.6824C4.13095 22.4024 5.2971 20.6474 7.3604 20.2315C7.64751 20.1748 7.94054 20.1538 8.23282 20.169C9.38877 20.233 11.0929 21.1199 11.4812 23.6384C11.8156 25.8689 11.2732 28.1386 9.17796 28.4963H9.18089ZM7.02014 18.8662C5.76598 19.0983 4.65122 19.809 3.9114 20.8481C3.49699 20.5035 2.72635 19.8302 2.59113 19.5758C1.48605 17.4776 3.79653 13.3975 5.41052 11.0929C9.40043 5.40029 15.6499 1.09195 18.5435 1.87278C19.013 2.00655 20.5704 3.81247 20.5704 3.81247C18.6094 4.93589 16.7452 6.22036 14.9971 7.6526C11.3837 10.4327 8.65597 14.4794 7.02014 18.8662ZM14.3892 11.071C15.8069 9.43235 17.5532 8.00739 19.1178 7.20767C19.1295 7.20153 19.1429 7.19935 19.1559 7.20145C19.1689 7.20355 19.1809 7.20982 19.1902 7.21932C19.1992 7.22882 19.2052 7.24104 19.2068 7.25415C19.2084 7.26725 19.2057 7.28053 19.1992 7.292C19.0096 7.62954 18.8629 7.98957 18.763 8.36364C18.7601 8.37622 18.761 8.3894 18.7658 8.40141C18.7705 8.41344 18.7788 8.42374 18.7895 8.43099C18.8002 8.43823 18.8129 8.44205 18.8257 8.44197C18.8387 8.44188 18.8513 8.43789 18.8619 8.43052C19.8346 7.76747 21.5272 7.05644 23.0132 6.96485C23.0269 6.9643 23.0405 6.96811 23.0519 6.97572C23.0634 6.98334 23.0721 6.99437 23.077 7.00725C23.0818 7.02012 23.0825 7.0342 23.0789 7.04747C23.0752 7.06074 23.0675 7.07253 23.0569 7.08116C22.8114 7.27016 22.5918 7.49065 22.4039 7.73694C22.397 7.74633 22.3929 7.75741 22.3919 7.769C22.3908 7.78059 22.3929 7.79226 22.398 7.80273C22.4031 7.8132 22.4109 7.82208 22.4206 7.82843C22.4305 7.83477 22.4417 7.83833 22.4534 7.83872C23.663 7.8797 24.8484 8.19017 25.9227 8.7475C25.9882 8.78385 25.9417 8.90889 25.8689 8.89291C23.799 8.4264 21.6505 8.43236 19.583 8.91035C17.3803 9.44686 15.7008 10.2757 14.472 11.1598C14.46 11.1654 14.4462 11.167 14.4331 11.1643C14.4199 11.1618 14.4079 11.1551 14.3987 11.1453C14.3895 11.1354 14.3837 11.123 14.3821 11.1097C14.3803 11.0964 14.3828 11.0828 14.3892 11.071ZM35.4191 27.1077C35.1413 28.7914 34.4259 30.1612 33.2235 31.4131C32.4726 32.226 31.5792 32.8942 30.5873 33.3848C30.0344 33.6751 29.458 33.9183 28.8643 34.1119C24.332 35.5921 19.6907 33.9664 18.1959 30.4768C18.0744 30.2096 17.9737 29.9334 17.8949 29.6509C17.2581 27.3477 17.7989 24.5849 19.4944 22.8444C19.6134 22.7409 19.6883 22.5958 19.7038 22.4387C19.6884 22.2972 19.6318 22.1631 19.5409 22.0534C18.9491 21.1956 16.9003 19.727 17.3119 16.9018C17.6027 14.8661 19.3854 13.4369 21.0429 13.5211L21.4631 13.5458C22.1816 13.588 22.8097 13.6796 23.4 13.7043C24.3901 13.7479 25.2815 13.6041 26.3356 12.7257C26.6905 12.435 26.9754 12.1718 27.4582 12.0904C27.6004 12.0531 27.7477 12.0389 27.8944 12.0482C28.1534 12.0569 28.405 12.1368 28.6214 12.2793C29.4677 12.8422 29.587 14.2045 29.6306 15.2006C29.6553 15.7691 29.7251 17.1461 29.7484 17.5416C29.8021 18.4446 30.0392 18.5726 30.5204 18.7296C30.7909 18.8196 31.0409 18.8851 31.4103 18.9898C32.5299 19.3038 33.193 19.6223 33.6117 20.0309C33.8277 20.2429 33.9686 20.5196 34.013 20.819C34.144 21.7815 33.2656 22.9695 30.9378 24.0498C28.3932 25.2321 25.3063 25.53 23.1746 25.2931L22.4272 25.2087C20.7201 24.979 19.7474 27.1834 20.7711 28.6984C21.4312 29.6712 23.2285 30.3051 25.0271 30.3051C29.1493 30.3051 32.3191 28.5458 33.4983 27.0249C33.5332 26.9797 33.5361 26.9739 33.5928 26.8911C33.6495 26.8082 33.603 26.7544 33.5303 26.8038C32.5676 27.464 28.2885 30.0797 23.7125 29.2931C23.3502 29.2284 22.9944 29.1312 22.6496 29.0023C22.2455 28.8453 21.4021 28.4571 21.2988 27.5905C24.9921 28.7333 27.3171 27.653 27.3171 27.653C27.3386 27.6432 27.3565 27.6271 27.3684 27.6068C27.3804 27.5865 27.3859 27.563 27.384 27.5396C27.3825 27.5256 27.3784 27.5121 27.3717 27.4997C27.3649 27.4874 27.3559 27.4765 27.3449 27.4678C27.3339 27.4589 27.3213 27.4524 27.3078 27.4485C27.2943 27.4446 27.2803 27.4434 27.2663 27.445C27.2663 27.445 24.2389 27.8928 21.3803 26.8459C21.6914 25.8281 22.5203 26.1989 23.7722 26.3006C25.7178 26.4152 27.6688 26.2037 29.5447 25.6754C30.8403 25.3047 32.5416 24.5719 33.8617 23.5293C34.1472 24.1871 34.3498 24.8777 34.4652 25.5853C34.6834 25.5529 34.9063 25.5932 35.0992 25.7001C35.3566 25.8587 35.5558 26.2062 35.4191 27.1077Z" fill="black"/>
</g>
</g>
</g>
</g>
<defs>
<clipPath id="clip0_117_2703">
<rect width="38" height="38" fill="white" transform="translate(0 0.399902)"/>
</clipPath>
</defs>
</svg>
