<svg width="140" height="31" viewBox="0 0 140 31" fill="none" xmlns="http://www.w3.org/2000/svg">
<g clip-path="url(#clip0_117_3874)">
<path d="M29.8601 0.853394H15.6719V14.6339H29.8601V0.853394Z" fill="#F8F3F4"/>
<path d="M0 0.853882H14.1883V14.6345H0V0.853882Z" fill="#F8F3F4"/>
<path d="M49.3474 17.556L48.5141 19.849H48.4447C48.3057 19.332 48.0511 18.5452 47.6345 17.6009L43.1675 6.6979H38.793V24.0753H41.6862V13.3522C41.6862 12.6777 41.6862 11.9134 41.663 10.9692C41.6466 10.6339 41.6184 10.3553 41.5952 10.1254L41.595 10.1231C41.5857 10.0303 41.5771 9.94512 41.5705 9.8676H41.6399C41.7788 10.5421 41.9407 11.0367 42.0564 11.3514L47.4263 24.0303H49.4631L54.7865 11.239C54.875 11.0155 54.9635 10.6212 55.052 10.2269C55.0792 10.1055 55.1066 9.98405 55.1337 9.8676H55.2031C55.1337 11.1491 55.0874 12.2956 55.0643 12.9925V24.0079H58.1425V6.65295H53.9302L49.3474 17.556Z" fill="#F8F3F4"/>
<path d="M61.0586 11.5535H64.0676V24.0077H61.0586V11.5535Z" fill="#F8F3F4"/>
<path d="M62.5867 6.29309C62.0774 6.29309 61.6608 6.47289 61.3135 6.78765C60.9663 7.1023 60.7812 7.50696 60.7812 8.00152C60.7812 8.47367 60.9663 8.87833 61.3135 9.19298C61.6608 9.50774 62.0774 9.66512 62.5867 9.66512C63.0958 9.66512 63.5354 9.48521 63.8596 9.19298C64.2067 8.87833 64.3919 8.47367 64.3919 8.00152C64.3919 7.52949 64.2067 7.12483 63.8596 6.78765C63.5586 6.47289 63.119 6.29309 62.5867 6.29309Z" fill="#F8F3F4"/>
<path d="M74.7394 11.4414C74.1839 11.329 73.6052 11.2615 73.0496 11.2615C71.684 11.2615 70.4342 11.5539 69.3927 12.1383C68.3512 12.7228 67.518 13.5322 66.9855 14.5438C66.43 15.5778 66.1523 16.7693 66.1523 18.1407C66.1523 19.3321 66.43 20.3886 66.9624 21.3553C67.4948 22.2995 68.2354 23.0637 69.2307 23.5808C70.1796 24.0979 71.2907 24.3677 72.5405 24.3677C73.9755 24.3677 75.2023 24.0754 76.1743 23.5359L76.1975 23.5133V20.8158L76.0818 20.9057C75.642 21.2204 75.1327 21.4901 74.6236 21.6475C74.0912 21.8274 73.6052 21.9173 73.1886 21.9173C71.985 21.9173 71.036 21.5802 70.3648 20.8382C69.6704 20.1188 69.3233 19.1298 69.3233 17.8933C69.3233 16.612 69.6704 15.6004 70.388 14.8584C71.1054 14.1166 72.0545 13.7344 73.2117 13.7344C74.1839 13.7344 75.1791 14.0491 76.0818 14.6786L76.1975 14.7685V11.9135L76.1743 11.891L76.1401 11.8773C75.7552 11.7233 75.3237 11.5506 74.7394 11.4414Z" fill="#F8F3F4"/>
<path d="M84.6676 11.3514C83.9269 11.3514 83.2325 11.5762 82.6308 12.0483C82.1215 12.453 81.7743 13.0374 81.4736 13.7342H81.4503V11.5537H78.4414V24.0079H81.4503V17.6459C81.4503 16.5668 81.6818 15.6676 82.1911 15.0157C82.7002 14.3413 83.3482 14.004 84.1352 14.004C84.3204 14.004 84.5055 14.034 84.7113 14.0674C84.8142 14.084 84.9222 14.1015 85.0379 14.1165C85.3619 14.2064 85.5934 14.2963 85.7555 14.4087L85.8711 14.4986V11.5762L85.8017 11.5537C85.5934 11.4188 85.1768 11.3514 84.6676 11.3514Z" fill="#F8F3F4"/>
<path fill-rule="evenodd" clip-rule="evenodd" d="M92.86 11.2839C90.7537 11.2839 89.0641 11.8908 87.8837 13.0822C86.6802 14.2738 86.1016 15.9148 86.1016 17.983C86.1016 19.9163 86.7032 21.4899 87.8606 22.6365C89.0178 23.7605 90.5918 24.345 92.5591 24.345C94.6191 24.345 96.2624 23.7381 97.4432 22.5241C98.6468 21.3101 99.2254 19.6916 99.2254 17.6908C99.2254 15.7124 98.6692 14.139 97.5354 12.9923C96.4475 11.8458 94.8504 11.2839 92.86 11.2839ZM95.2671 20.8605C94.7117 21.5574 93.8321 21.8946 92.7443 21.8946C91.6563 21.8946 90.7769 21.5574 90.1519 20.8155C89.527 20.1187 89.2261 19.107 89.2261 17.8256C89.2261 16.4993 89.5503 15.4877 90.1519 14.7683C90.7769 14.049 91.6332 13.6892 92.7211 13.6892C93.7858 13.6892 94.6191 14.0265 95.2208 14.7233C95.8226 15.4202 96.1467 16.4319 96.1467 17.7583C96.1004 19.107 95.8458 20.1637 95.2671 20.8605Z" fill="#F8F3F4"/>
<path d="M105.939 16.7243C104.99 16.3422 104.388 16.05 104.11 15.8027C103.878 15.5778 103.763 15.2631 103.763 14.8584C103.763 14.5212 103.902 14.184 104.249 13.9592C104.597 13.7344 104.99 13.6221 105.568 13.6221C106.078 13.6221 106.61 13.712 107.12 13.8469C107.628 13.9817 108.091 14.184 108.462 14.4537L108.577 14.5438V11.8011L108.508 11.7786C108.161 11.6438 107.698 11.5088 107.143 11.3965C106.587 11.3065 106.078 11.2615 105.662 11.2615C104.226 11.2615 103.046 11.5988 102.12 12.3406C101.194 13.0375 100.754 13.9817 100.754 15.0833C100.754 15.6677 100.847 16.1848 101.055 16.612C101.264 17.039 101.564 17.4436 101.981 17.7809C102.397 18.0956 102.999 18.4553 103.833 18.7926C104.527 19.0848 105.06 19.3096 105.383 19.4895C105.707 19.6693 105.916 19.8716 106.078 20.0289C106.194 20.2088 106.263 20.4335 106.263 20.7258C106.263 21.5576 105.615 21.9623 104.296 21.9623C103.786 21.9623 103.254 21.8724 102.629 21.6701C102.004 21.4677 101.426 21.1755 100.939 20.8382L100.824 20.7483V23.6034L100.893 23.6258C101.333 23.8281 101.865 23.9631 102.514 24.1203C103.161 24.2328 103.74 24.3227 104.249 24.3227C105.8 24.3227 107.073 23.9855 107.976 23.2436C108.902 22.5243 109.388 21.6026 109.388 20.4111C109.388 19.5794 109.156 18.8375 108.647 18.2755C107.976 17.736 107.143 17.1739 105.939 16.7243Z" fill="#F8F3F4"/>
<path fill-rule="evenodd" clip-rule="evenodd" d="M117.324 11.2839C115.219 11.2839 113.528 11.8908 112.349 13.0822C111.168 14.2738 110.566 15.9148 110.566 17.983C110.566 19.9163 111.168 21.4899 112.326 22.6365C113.483 23.7605 115.057 24.345 117.023 24.345C119.084 24.345 120.728 23.7381 121.907 22.5241C123.111 21.3101 123.69 19.6916 123.69 17.6908C123.69 15.7124 123.134 14.139 122 12.9923C120.912 11.8458 119.316 11.2839 117.324 11.2839ZM119.709 20.8605C119.153 21.5574 118.274 21.8946 117.185 21.8946C116.075 21.8946 115.219 21.5574 114.594 20.8155C113.969 20.1187 113.667 19.107 113.667 17.8256C113.667 16.4993 113.992 15.4877 114.594 14.7683C115.219 14.049 116.075 13.6892 117.162 13.6892C118.203 13.6892 119.061 14.0265 119.663 14.7233C120.264 15.4202 120.589 16.4319 120.589 17.7583C120.589 19.107 120.288 20.1637 119.709 20.8605Z" fill="#F8F3F4"/>
<path d="M139.775 13.9591V11.5537H136.743V7.86692L136.65 7.88934L133.78 8.72119L133.711 8.74361V11.5537H129.174V9.98001C129.174 9.2607 129.36 8.69866 129.683 8.33895C130.007 7.97924 130.493 7.79944 131.095 7.79944C131.511 7.79944 131.951 7.88934 132.437 8.09167L132.553 8.15915V5.61886L132.484 5.59633C132.068 5.46148 131.511 5.37158 130.794 5.37158C129.892 5.37158 129.104 5.57391 128.386 5.91109C127.67 6.29322 127.138 6.81031 126.743 7.50721C126.35 8.18157 126.142 8.94594 126.142 9.82263V11.5537H124.035V13.9366H126.142V24.0079H129.174V13.9591H133.711V20.366C133.711 22.9962 134.983 24.3225 137.53 24.3225C137.946 24.3225 138.386 24.2552 138.803 24.1877C139.243 24.0978 139.566 23.9854 139.751 23.8955L139.775 23.8729V21.4676L139.659 21.5575C139.474 21.6699 139.312 21.7598 139.034 21.8273C138.803 21.8947 138.594 21.9172 138.433 21.9172C137.83 21.9172 137.414 21.7824 137.113 21.4451C136.836 21.1303 136.697 20.6133 136.697 19.849V13.9591H139.775Z" fill="#F8F3F4"/>
<path d="M0 16.0728H14.1883V29.8534H0V16.0728Z" fill="#F8F3F4"/>
<path d="M29.8601 16.0728H15.6719V29.8534H29.8601V16.0728Z" fill="#F8F3F4"/>
</g>
<defs>
<clipPath id="clip0_117_3874">
<rect width="140" height="30" fill="white" transform="translate(0 0.419922)"/>
</clipPath>
</defs>
</svg>
