<svg width="48" height="49" viewBox="0 0 48 49" fill="none" xmlns="http://www.w3.org/2000/svg">
<g clip-path="url(#clip0_117_3992)">
<mask id="mask0_117_3992" style="mask-type:luminance" maskUnits="userSpaceOnUse" x="0" y="0" width="48" height="49">
<path d="M48 0.419922H0V48.4199H48V0.419922Z" fill="white"/>
</mask>
<g mask="url(#mask0_117_3992)">
<mask id="mask1_117_3992" style="mask-type:luminance" maskUnits="userSpaceOnUse" x="0" y="0" width="48" height="49">
<path d="M48 0.419922H0V48.4199H48V0.419922Z" fill="white"/>
</mask>
<g mask="url(#mask1_117_3992)">
<path d="M24 48.4199C34.5167 48.4199 40.363 48.4199 44.1815 44.6014C48 40.7829 48 34.9366 48 24.4199C48 13.9032 48 8.05689 44.1815 4.2384C40.363 0.419921 34.5167 0.419922 24 0.419922C13.4833 0.419922 7.63697 0.419921 3.81848 4.2384C-7.15256e-07 8.05689 0 13.9032 0 24.4199C0 34.9366 -7.15256e-07 40.7829 3.81848 44.6014C7.63697 48.4199 13.4833 48.4199 24 48.4199Z" fill="url(#paint0_linear_117_3992)"/>
<g filter="url(#filter0_diii_117_3992)">
<path fill-rule="evenodd" clip-rule="evenodd" d="M40 19.702C40 21.5146 38.5306 22.984 36.7179 22.984C35.1887 22.984 33.9037 21.9381 33.5393 20.5225H28.957C28.1548 20.5225 27.4702 21.1024 27.3383 21.8937L27.2034 22.7031C27.0754 23.4715 26.6866 24.1403 26.1369 24.625C26.6866 25.1097 27.0754 25.7785 27.2034 26.547L27.3383 27.3564C27.4702 28.1476 28.1548 28.7276 28.957 28.7276H30.2573C30.6216 27.312 31.9066 26.2661 33.4359 26.2661C35.2485 26.2661 36.7179 27.7355 36.7179 29.5481C36.7179 31.3607 35.2485 32.8302 33.4359 32.8302C31.9066 32.8302 30.6216 31.7842 30.2573 30.3686H28.957C27.3527 30.3686 25.9834 29.2087 25.7197 27.6261L25.5847 26.8168C25.4529 26.0255 24.7682 25.4455 23.9661 25.4455H22.6274C22.2178 26.7912 20.9668 27.7703 19.4872 27.7703C18.0075 27.7703 16.7566 26.7912 16.3469 25.4455H14.4223C14.0126 26.7912 12.7617 27.7703 11.2821 27.7703C9.46943 27.7703 8 26.3009 8 24.4883C8 22.6757 9.46943 21.2062 11.2821 21.2062C12.8602 21.2062 14.1782 22.3201 14.4928 23.8045H16.2765C16.591 22.3201 17.909 21.2062 19.4872 21.2062C21.0653 21.2062 22.3833 22.3201 22.6979 23.8045H23.9661C24.7682 23.8045 25.4529 23.2245 25.5847 22.4333L25.7197 21.6239C25.9834 20.0414 27.3527 18.8814 28.957 18.8814H33.5393C33.9037 17.4659 35.1887 16.4199 36.7179 16.4199C38.5306 16.4199 40 17.8893 40 19.702ZM38.359 19.702C38.359 20.6082 37.6243 21.343 36.7179 21.343C35.8116 21.343 35.0769 20.6082 35.0769 19.702C35.0769 18.7956 35.8116 18.0609 36.7179 18.0609C37.6243 18.0609 38.359 18.7956 38.359 19.702ZM11.2821 26.1293C12.1884 26.1293 12.9231 25.3946 12.9231 24.4883C12.9231 23.582 12.1884 22.8473 11.2821 22.8473C10.3757 22.8473 9.64102 23.582 9.64102 24.4883C9.64102 25.3946 10.3757 26.1293 11.2821 26.1293ZM19.4872 26.1293C20.3935 26.1293 21.1282 25.3946 21.1282 24.4883C21.1282 23.582 20.3935 22.8473 19.4872 22.8473C18.5809 22.8473 17.8461 23.582 17.8461 24.4883C17.8461 25.3946 18.5809 26.1293 19.4872 26.1293ZM33.4359 31.1891C34.3422 31.1891 35.0769 30.4544 35.0769 29.5481C35.0769 28.6418 34.3422 27.9071 33.4359 27.9071C32.5296 27.9071 31.7949 28.6418 31.7949 29.5481C31.7949 30.4544 32.5296 31.1891 33.4359 31.1891Z" fill="url(#paint1_radial_117_3992)" fill-opacity="0.9"/>
</g>
<g style="mix-blend-mode:overlay">
<path d="M24 48.4199C34.5167 48.4199 40.363 48.4199 44.1815 44.6014C48 40.7829 48 34.9366 48 24.4199C48 13.9032 48 8.05689 44.1815 4.2384C40.363 0.419921 34.5167 0.419922 24 0.419922C13.4833 0.419922 7.63697 0.419921 3.81848 4.2384C-4.76837e-07 8.05689 0 13.9032 0 24.4199C0 34.9366 -4.76837e-07 40.7829 3.81848 44.6014C7.63697 48.4199 13.4833 48.4199 24 48.4199Z" fill="url(#paint2_linear_117_3992)"/>
</g>
<g style="mix-blend-mode:overlay">
<path d="M24 48.4199C34.5167 48.4199 40.363 48.4199 44.1815 44.6014C48 40.7829 48 34.9366 48 24.4199C48 13.9032 48 8.05689 44.1815 4.2384C40.363 0.419921 34.5167 0.419922 24 0.419922C13.4833 0.419922 7.63697 0.419921 3.81848 4.2384C-7.15256e-07 8.05689 0 13.9032 0 24.4199C0 34.9366 -7.15256e-07 40.7829 3.81848 44.6014C7.63697 48.4199 13.4833 48.4199 24 48.4199Z" fill="url(#paint3_linear_117_3992)"/>
</g>
<g style="mix-blend-mode:soft-light" filter="url(#filter1_f_117_3992)">
<path d="M43.9759 44.3961C42.1265 46.2456 39.778 47.1833 36.5601 47.6553C33.3324 48.1289 29.2663 48.1296 23.9997 48.1296C18.7331 48.1296 14.667 48.1289 11.4393 47.6553C8.22138 47.1833 5.87295 46.2456 4.02349 44.3961C2.17404 42.5467 1.23637 40.1982 0.764274 36.9803C0.290747 33.7526 0.290039 29.6865 0.290039 24.4199C0.290039 19.1533 0.290747 15.0872 0.764274 11.8595C1.23637 8.64154 2.17404 6.29311 4.02349 4.44365C5.87295 2.5942 8.22138 1.65653 11.4393 1.18444C14.667 0.710913 18.7331 0.710205 23.9997 0.710205C29.2663 0.710205 33.3324 0.710913 36.5601 1.18444C39.778 1.65653 42.1265 2.5942 43.9759 4.44365C45.8254 6.29311 46.7631 8.64154 47.2351 11.8595C47.7087 15.0872 47.7094 19.1533 47.7094 24.4199C47.7094 29.6865 47.7087 33.7526 47.2351 36.9803C46.7631 40.1982 45.8254 42.5467 43.9759 44.3961Z" stroke="url(#paint4_linear_117_3992)" stroke-width="0.580645"/>
</g>
<g style="mix-blend-mode:soft-light" filter="url(#filter2_f_117_3992)">
<path d="M43.9074 44.3277C42.0779 46.1572 39.752 47.0892 36.546 47.5596C33.3269 48.0319 29.269 48.0328 23.9996 48.0328C18.7302 48.0328 14.6723 48.0319 11.4532 47.5596C8.24719 47.0892 5.92135 46.1572 4.09182 44.3277C2.2623 42.4982 1.33028 40.1723 0.859929 36.9663C0.387663 33.7472 0.386719 29.6893 0.386719 24.4199C0.386719 19.1505 0.387663 15.0926 0.859929 11.8735C1.33028 8.66748 2.2623 6.34164 4.09182 4.51211C5.92135 2.68259 8.24719 1.75057 11.4532 1.28022C14.6723 0.807951 18.7302 0.807007 23.9996 0.807007C29.269 0.807007 33.3269 0.807951 36.546 1.28022C39.752 1.75057 42.0779 2.68259 43.9074 4.51211C45.7369 6.34164 46.6689 8.66748 47.1393 11.8735C47.6116 15.0926 47.6125 19.1505 47.6125 24.4199C47.6125 29.6893 47.6116 33.7472 47.1393 36.9663C46.6689 40.1723 45.7369 42.4982 43.9074 44.3277Z" stroke="url(#paint5_linear_117_3992)" stroke-width="0.774194"/>
</g>
</g>
</g>
</g>
<defs>
<filter id="filter0_diii_117_3992" x="4" y="16.4199" width="40" height="24.4103" filterUnits="userSpaceOnUse" color-interpolation-filters="sRGB">
<feFlood flood-opacity="0" result="BackgroundImageFix"/>
<feColorMatrix in="SourceAlpha" type="matrix" values="0 0 0 0 0 0 0 0 0 0 0 0 0 0 0 0 0 0 127 0" result="hardAlpha"/>
<feOffset dy="4"/>
<feGaussianBlur stdDeviation="2"/>
<feComposite in2="hardAlpha" operator="out"/>
<feColorMatrix type="matrix" values="0 0 0 0 0.0313726 0 0 0 0 0.0313726 0 0 0 0 0.0313726 0 0 0 0.08 0"/>
<feBlend mode="normal" in2="BackgroundImageFix" result="effect1_dropShadow_117_3992"/>
<feBlend mode="normal" in="SourceGraphic" in2="effect1_dropShadow_117_3992" result="shape"/>
<feColorMatrix in="SourceAlpha" type="matrix" values="0 0 0 0 0 0 0 0 0 0 0 0 0 0 0 0 0 0 127 0" result="hardAlpha"/>
<feOffset dy="1"/>
<feGaussianBlur stdDeviation="1"/>
<feComposite in2="hardAlpha" operator="arithmetic" k2="-1" k3="1"/>
<feColorMatrix type="matrix" values="0 0 0 0 0.0313726 0 0 0 0 0.0313726 0 0 0 0 0.0313726 0 0 0 0.2 0"/>
<feBlend mode="normal" in2="shape" result="effect2_innerShadow_117_3992"/>
<feColorMatrix in="SourceAlpha" type="matrix" values="0 0 0 0 0 0 0 0 0 0 0 0 0 0 0 0 0 0 127 0" result="hardAlpha"/>
<feOffset dy="1"/>
<feGaussianBlur stdDeviation="0.5"/>
<feComposite in2="hardAlpha" operator="arithmetic" k2="-1" k3="1"/>
<feColorMatrix type="matrix" values="0 0 0 0 1 0 0 0 0 1 0 0 0 0 1 0 0 0 0.2 0"/>
<feBlend mode="normal" in2="effect2_innerShadow_117_3992" result="effect3_innerShadow_117_3992"/>
<feColorMatrix in="SourceAlpha" type="matrix" values="0 0 0 0 0 0 0 0 0 0 0 0 0 0 0 0 0 0 127 0" result="hardAlpha"/>
<feOffset dy="6"/>
<feGaussianBlur stdDeviation="6"/>
<feComposite in2="hardAlpha" operator="arithmetic" k2="-1" k3="1"/>
<feColorMatrix type="matrix" values="0 0 0 0 1 0 0 0 0 1 0 0 0 0 1 0 0 0 0.12 0"/>
<feBlend mode="normal" in2="effect3_innerShadow_117_3992" result="effect4_innerShadow_117_3992"/>
</filter>
<filter id="filter1_f_117_3992" x="-0.387096" y="0.0328259" width="48.7742" height="48.7742" filterUnits="userSpaceOnUse" color-interpolation-filters="sRGB">
<feFlood flood-opacity="0" result="BackgroundImageFix"/>
<feBlend mode="normal" in="SourceGraphic" in2="BackgroundImageFix" result="shape"/>
<feGaussianBlur stdDeviation="0.193548" result="effect1_foregroundBlur_117_3992"/>
</filter>
<filter id="filter2_f_117_3992" x="-1" y="-0.580078" width="50" height="50" filterUnits="userSpaceOnUse" color-interpolation-filters="sRGB">
<feFlood flood-opacity="0" result="BackgroundImageFix"/>
<feBlend mode="normal" in="SourceGraphic" in2="BackgroundImageFix" result="shape"/>
<feGaussianBlur stdDeviation="0.5" result="effect1_foregroundBlur_117_3992"/>
</filter>
<linearGradient id="paint0_linear_117_3992" x1="24" y1="0.419922" x2="24" y2="48.4199" gradientUnits="userSpaceOnUse">
<stop stop-color="#312C3C"/>
<stop offset="1" stop-color="#002849"/>
</linearGradient>
<radialGradient id="paint1_radial_117_3992" cx="0" cy="0" r="1" gradientUnits="userSpaceOnUse" gradientTransform="translate(8 16.4199) rotate(27.4632) scale(36.0642 39.423)">
<stop stop-color="#F8F8F8"/>
<stop offset="0.295546" stop-color="#FF9B26"/>
<stop offset="0.620546" stop-color="#EE4F27"/>
<stop offset="1" stop-color="#520092"/>
</radialGradient>
<linearGradient id="paint2_linear_117_3992" x1="-0.562964" y1="0.419922" x2="12.5775" y2="56.6917" gradientUnits="userSpaceOnUse">
<stop stop-opacity="0"/>
<stop offset="0.605667" stop-opacity="0.0781197"/>
<stop offset="1" stop-opacity="0.26"/>
</linearGradient>
<linearGradient id="paint3_linear_117_3992" x1="-0.562964" y1="0.419922" x2="12.5775" y2="56.6917" gradientUnits="userSpaceOnUse">
<stop offset="0.140625" stop-color="white" stop-opacity="0.26"/>
<stop offset="0.640625" stop-color="white" stop-opacity="0.0781197"/>
<stop offset="1" stop-color="white" stop-opacity="0"/>
</linearGradient>
<linearGradient id="paint4_linear_117_3992" x1="23.9997" y1="48.4199" x2="23.9997" y2="40.9199" gradientUnits="userSpaceOnUse">
<stop/>
<stop offset="1" stop-opacity="0"/>
</linearGradient>
<linearGradient id="paint5_linear_117_3992" x1="23.9996" y1="0.41991" x2="23.9996" y2="24.4199" gradientUnits="userSpaceOnUse">
<stop stop-color="white"/>
<stop offset="1" stop-color="white" stop-opacity="0"/>
</linearGradient>
<clipPath id="clip0_117_3992">
<rect width="48" height="48" fill="white" transform="translate(0 0.419922)"/>
</clipPath>
</defs>
</svg>
